<svg width="20" height="24" viewBox="0 0 20 24" fill="none" xmlns="http://www.w3.org/2000/svg">
<path d="M10.7951 2.04304C12.372 0.00991187 14.5642 0 14.5642 0C14.5642 0 14.8903 1.91149 13.3237 3.75286C11.6511 5.71903 9.74984 5.3973 9.74984 5.3973C9.74984 5.3973 9.39284 3.85097 10.7951 2.04304ZM9.9504 6.73629C10.7616 6.73629 12.2672 5.64544 14.2269 5.64544C17.6002 5.64544 18.9273 7.99355 18.9273 7.99355C18.9273 7.99355 16.3318 9.2917 16.3318 12.4416C16.3318 15.9949 19.5651 17.2195 19.5651 17.2195C19.5651 17.2195 17.3049 23.4427 14.252 23.4427C12.8499 23.4427 11.7598 22.5183 10.2824 22.5183C8.77678 22.5183 7.28271 23.4772 6.30961 23.4772C3.52188 23.4772 0 17.5739 0 12.8287C0 8.15997 2.98104 5.71086 5.77713 5.71086C7.59485 5.71086 9.00541 6.73629 9.9504 6.73629Z" fill="black"/>
</svg>
