<svg width="143" height="31" viewBox="0 0 143 31" fill="none" xmlns="http://www.w3.org/2000/svg">
<path d="M4.91659 16.0227C4.91659 19.6514 6.33606 21.3865 8.72933 21.3865C9.64921 21.3865 10.6214 21.1502 11.3843 20.7553V17.8894H8.25512V14.2099H15.4857V22.281C14.2502 23.5958 11.7522 24.9629 8.65003 24.936C3.6811 24.909 0 21.3595 0 16.0227C0 10.6604 3.6811 7.13632 8.65003 7.11094C11.7522 7.08557 13.619 8.4527 14.8814 9.7659L12.6721 12.3685C11.8315 11.501 10.6738 10.6604 9.01799 10.6604C6.33606 10.6604 4.91659 12.3685 4.91659 16.0227Z" fill="#FEBD2A"/>
<path d="M22.8733 7.55835H18.22V24.7268H22.8733V7.55835Z" fill="#FEBD2A"/>
<path d="M82.4512 17.7056V21.0441H89.8134V24.7252H77.7979V7.55835H89.8134V11.2379H82.4512V14.0245H89.1298V17.7056H82.4512Z" fill="#FEBD2A"/>
<path d="M95.9402 11.2379H91.3123V7.55835H105.22V11.2379H100.594V24.7252H95.9402V11.2379Z" fill="#FEBD2A"/>
<path d="M110.952 11.2379H106.325V7.55835H120.233V11.2379H115.606V24.7252H110.952V11.2379Z" fill="#FEBD2A"/>
<path d="M126.412 17.7056V21.0441H133.774V24.7252H121.759V7.55835H133.774V11.2379H126.412V14.0245H133.091V17.7056H126.412Z" fill="#FEBD2A"/>
<path d="M49.7258 16.3575C52.9232 16.3527 55.4735 13.7992 55.5322 10.6717C55.594 7.40291 52.9724 4.78601 49.7924 4.75747C46.5824 4.72892 44.0051 7.28555 43.9338 10.4211C43.8624 13.6914 46.4825 16.3448 49.7258 16.3575ZM49.7306 30.43C49.4927 30.1049 49.2564 29.7924 49.0327 29.4737C48.2857 28.411 47.534 27.3532 46.8012 26.281C45.8274 24.8552 44.8933 23.404 43.994 21.9291C43.1281 20.5064 42.2938 19.0648 41.5405 17.5787C41.0441 16.6001 40.5556 15.6168 40.0909 14.6224C39.7245 13.8389 39.4676 13.0126 39.3169 12.1577C39.1599 11.2569 39.1425 10.3529 39.2376 9.44409C39.336 8.49883 39.558 7.58371 39.9053 6.69873C40.3177 5.6488 40.8839 4.69085 41.6039 3.82331C42.5095 2.73056 43.5912 1.85509 44.8473 1.1969C45.9908 0.597394 47.2073 0.223098 48.4903 0.0740146C50.0573 -0.108375 51.5925 0.0454666 53.0897 0.545056C54.4505 1.00024 55.6701 1.70759 56.7423 2.66395C58.1078 3.882 59.0959 5.3538 59.7017 7.07937C60.0301 8.01193 60.2156 8.97305 60.2695 9.96112C60.3155 10.7763 60.2743 11.5868 60.1173 12.3877C59.9745 13.1188 59.7303 13.8183 59.4226 14.4939C58.7375 15.9943 58.0079 17.4708 57.2165 18.9188C56.3188 20.5635 55.3577 22.1701 54.3347 23.7403C53.5354 24.9678 52.7265 26.1891 51.8986 27.3976C51.2198 28.3872 50.5077 29.3515 49.8099 30.3285C49.7893 30.3571 49.7655 30.3856 49.7306 30.43Z" fill="#F15F35"/>
<path d="M39.7387 13.7438C39.7625 13.5122 39.78 13.2743 39.78 13.0269C39.78 11.9786 39.5595 11.1142 39.1868 10.4084C39.1789 10.9937 39.2169 11.5773 39.3184 12.1578C39.4136 12.7002 39.5563 13.2284 39.7387 13.7438Z" fill="#F15F35"/>
<path d="M32.7332 15.2076H30.5255V11.2379H32.7332C34.205 11.2379 35.1249 11.8691 35.1249 13.2093C35.1249 14.551 34.205 15.2076 32.7332 15.2076ZM39.4547 15.0665C39.4356 15.0268 39.4166 14.9856 39.3976 14.9459C39.0058 14.1085 38.7251 13.214 38.5633 12.2894C38.4016 11.3711 38.373 10.4005 38.4729 9.40762C37.174 8.02622 35.1376 7.55835 33.4691 7.55835H25.8706V24.7252H30.5239V18.8887H32.5223L35.5452 24.7252H40.4618L36.7807 18.1528C37.9353 17.5945 38.9567 16.5446 39.4547 15.0665Z" fill="#FEBD2A"/>
<path d="M60.2709 9.96098C60.2407 9.41222 60.1646 8.87298 60.052 8.34009V12.6794C60.0742 12.5826 60.0996 12.4859 60.1202 12.3876C60.2756 11.585 60.3153 10.7762 60.2709 9.96098Z" fill="#F15F35"/>
<path d="M70.147 7.55835V18.3114C70.147 20.0211 69.2525 21.3882 67.3604 21.3882C65.4683 21.3882 64.7054 20.0211 64.7054 18.3114V7.55835H60.6532C60.8626 8.32121 60.991 9.11263 61.0354 9.91831C61.0878 10.8477 61.0323 11.7041 60.8705 12.5336C60.7246 13.2822 60.4788 14.026 60.1203 14.8111C60.0981 14.8619 60.0743 14.9094 60.0505 14.9586V17.7563C60.0505 21.4374 61.9696 24.933 67.3588 24.933C72.7227 24.933 74.7987 21.4358 74.7987 17.7563V7.55835H70.147Z" fill="#FEBD2A"/>
<path d="M140.608 22.5318L141.067 22.6666C140.992 22.9775 140.833 23.2249 140.592 23.4104C140.35 23.596 140.056 23.688 139.711 23.688C139.273 23.688 138.918 23.5468 138.645 23.2629C138.372 22.9806 138.236 22.5873 138.236 22.0861C138.236 21.7578 138.297 21.4739 138.421 21.2313C138.545 20.9886 138.722 20.8062 138.952 20.6841C139.182 20.5604 139.444 20.5001 139.741 20.5001C140.071 20.5001 140.345 20.5794 140.564 20.7365C140.783 20.8935 140.932 21.1076 141.011 21.3788L140.567 21.4866C140.492 21.3027 140.383 21.1615 140.237 21.0632C140.091 20.9648 139.921 20.9157 139.725 20.9157C139.439 20.9157 139.203 21.0172 139.019 21.2218C138.833 21.4248 138.741 21.7166 138.741 22.0972C138.741 22.4779 138.829 22.7649 139.005 22.96C139.179 23.1551 139.406 23.2518 139.685 23.2518C139.909 23.2518 140.105 23.1868 140.274 23.0584C140.442 22.9267 140.554 22.7523 140.608 22.5318ZM139.707 19.7293C139.312 19.7293 138.929 19.8308 138.554 20.0339C138.18 20.2369 137.888 20.5255 137.677 20.9014C137.466 21.2773 137.36 21.669 137.36 22.0766C137.36 22.4811 137.463 22.8696 137.671 23.2407C137.879 23.6119 138.169 23.9021 138.54 24.1083C138.913 24.3161 139.301 24.4191 139.706 24.4191C140.11 24.4191 140.499 24.3161 140.871 24.1083C141.244 23.9005 141.533 23.6119 141.739 23.2407C141.945 22.8696 142.048 22.4811 142.048 22.0766C142.048 21.669 141.944 21.2773 141.734 20.9014C141.525 20.5255 141.232 20.2353 140.857 20.0339C140.483 19.8308 140.099 19.7293 139.707 19.7293ZM139.707 19.2646C140.18 19.2646 140.64 19.3852 141.09 19.6278C141.539 19.8705 141.89 20.2162 142.14 20.6683C142.391 21.1187 142.516 21.5897 142.516 22.0782C142.516 22.5619 142.392 23.0282 142.145 23.4755C141.898 23.9227 141.552 24.2701 141.106 24.5175C140.661 24.7649 140.194 24.8886 139.707 24.8886C139.22 24.8886 138.754 24.7649 138.309 24.5175C137.863 24.2701 137.516 23.9227 137.267 23.4755C137.018 23.0282 136.894 22.5619 136.894 22.0782C136.894 21.5897 137.019 21.1187 137.271 20.6683C137.523 20.2178 137.874 19.8705 138.324 19.6278C138.775 19.3852 139.235 19.2646 139.707 19.2646Z" fill="#FEBD2A"/>
</svg>
