<svg width="238" height="51" viewBox="0 0 238 51" fill="none" xmlns="http://www.w3.org/2000/svg">
<path d="M8.19919 26.7207C8.19919 32.7722 10.5664 35.6657 14.5575 35.6657C16.0916 35.6657 17.7129 35.2716 18.9851 34.6131V29.8337H13.7667V23.6976H25.8248V37.1575C23.7644 39.3501 19.5987 41.63 14.4253 41.585C6.13882 41.5401 0 35.6208 0 26.7207C0 17.7783 6.13882 11.9013 14.4253 11.859C19.5987 11.8167 22.7118 14.0966 24.8171 16.2865L21.1328 20.6268C19.731 19.1801 17.8002 17.7783 15.0389 17.7783C10.5664 17.7783 8.19919 20.6268 8.19919 26.7207Z" fill="white"/>
<path d="M38.1448 12.6045H30.3846V41.2355H38.1448V12.6045Z" fill="white"/>
<path d="M137.5 29.5266V35.0941H149.778V41.2329H129.74V12.6045H149.778V18.7407H137.5V23.3878H148.638V29.5266H137.5Z" fill="white"/>
<path d="M159.995 18.7407H152.278V12.6045H175.471V18.7407H167.756V41.2329H159.995V18.7407Z" fill="white"/>
<path d="M185.029 18.7407H177.314V12.6045H200.507V18.7407H192.792V41.2329H185.029V18.7407Z" fill="white"/>
<path d="M210.812 29.5266V35.0941H223.089V41.2329H203.052V12.6045H223.089V18.7407H210.812V23.3878H221.949V29.5266H210.812Z" fill="white"/>
<path d="M82.9256 27.2786C88.2577 27.2707 92.5107 23.0124 92.6085 17.7967C92.7117 12.3455 88.3397 7.98143 83.0366 7.93382C77.6834 7.88622 73.3854 12.1498 73.2664 17.3788C73.1474 22.8326 77.5167 27.2575 82.9256 27.2786ZM82.9335 50.7468C82.5368 50.2046 82.1427 49.6836 81.7697 49.152C80.524 47.3799 79.2703 45.6157 78.0484 43.8278C76.4244 41.45 74.8665 39.0299 73.3669 36.5702C71.9228 34.1977 70.5316 31.7935 69.2752 29.3152C68.4474 27.6833 67.6327 26.0435 66.8578 24.3851C66.2468 23.0785 65.8183 21.7005 65.5671 20.2749C65.3052 18.7726 65.2761 17.265 65.4348 15.7495C65.5988 14.1731 65.9691 12.647 66.5483 11.1712C67.236 9.42026 68.1802 7.82274 69.381 6.37598C70.8913 4.55364 72.6951 3.09365 74.7898 1.99602C76.6968 0.996248 78.7255 0.372052 80.8652 0.123431C83.4783 -0.180733 86.0386 0.0758228 88.5354 0.908967C90.8047 1.66805 92.8386 2.84768 94.6266 4.44255C96.9039 6.47384 98.5516 8.92831 99.562 11.806C100.109 13.3612 100.419 14.964 100.509 16.6117C100.586 17.9712 100.517 19.3228 100.255 20.6584C100.017 21.8777 99.6096 23.0441 99.0965 24.1709C97.9539 26.6729 96.7372 29.1353 95.4174 31.5501C93.9204 34.2929 92.3176 36.9722 90.6116 39.5906C89.2786 41.6378 87.9297 43.6744 86.5491 45.6898C85.4171 47.3402 84.2295 48.9483 83.0657 50.5776C83.0313 50.6252 82.9917 50.6728 82.9335 50.7468Z" fill="#F15F35"/>
<path d="M66.2704 22.9197C66.3101 22.5335 66.3392 22.1368 66.3392 21.7242C66.3392 19.9759 65.9715 18.5344 65.35 17.3574C65.3367 18.3334 65.4002 19.3067 65.5695 20.2747C65.7282 21.1793 65.9662 22.0601 66.2704 22.9197Z" fill="#F15F35"/>
<path d="M54.5879 25.3608H50.9062V18.7407H54.5879C57.0424 18.7407 58.5764 19.7933 58.5764 22.0283C58.5764 24.2659 57.0424 25.3608 54.5879 25.3608ZM65.797 25.1255C65.7653 25.0593 65.7335 24.9906 65.7018 24.9244C65.0485 23.5279 64.5804 22.0362 64.3106 20.4942C64.0408 18.9628 63.9932 17.3442 64.1598 15.6884C61.9936 13.3847 58.5976 12.6045 55.8152 12.6045H43.1434V41.2329H50.9036V31.4997H54.2361L59.2773 41.2329H67.4765L61.3377 30.2724C63.2632 29.3414 64.9665 27.5905 65.797 25.1255Z" fill="white"/>
<path d="M100.511 16.6118C100.461 15.6966 100.334 14.7974 100.146 13.9087V21.1451C100.183 20.9838 100.226 20.8225 100.26 20.6585C100.519 19.3202 100.585 17.9713 100.511 16.6118Z" fill="#F15F35"/>
<path d="M116.981 12.6045V30.5369C116.981 33.3881 115.489 35.668 112.334 35.668C109.179 35.668 107.906 33.3881 107.906 30.5369V12.6045H101.149C101.498 13.8767 101.712 15.1965 101.786 16.5401C101.873 18.09 101.781 19.5183 101.511 20.9015C101.268 22.1499 100.858 23.3904 100.26 24.6996C100.223 24.7843 100.183 24.8636 100.144 24.9456V29.6112C100.144 35.75 103.344 41.5794 112.331 41.5794C121.276 41.5794 124.739 35.7474 124.739 29.6112V12.6045H116.981Z" fill="white"/>
<path d="M234.486 37.5754L235.251 37.8003C235.126 38.3187 234.862 38.7313 234.46 39.0407C234.055 39.3502 233.566 39.5036 232.989 39.5036C232.259 39.5036 231.667 39.2682 231.212 38.7947C230.757 38.324 230.529 37.668 230.529 36.8322C230.529 36.2847 230.633 35.8113 230.839 35.4066C231.045 35.002 231.341 34.6978 231.725 34.4941C232.108 34.2878 232.545 34.1873 233.039 34.1873C233.59 34.1873 234.047 34.3196 234.412 34.5814C234.777 34.8433 235.026 35.2003 235.158 35.6526L234.417 35.8325C234.293 35.5256 234.111 35.2903 233.867 35.1263C233.624 34.9623 233.341 34.8803 233.013 34.8803C232.537 34.8803 232.143 35.0496 231.836 35.3908C231.527 35.7293 231.373 36.216 231.373 36.8507C231.373 37.4855 231.519 37.9642 231.812 38.2896C232.103 38.6149 232.481 38.7762 232.947 38.7762C233.32 38.7762 233.648 38.6678 233.928 38.4536C234.209 38.234 234.396 37.9431 234.486 37.5754ZM232.984 32.9019C232.325 32.9019 231.685 33.0712 231.061 33.4097C230.437 33.7483 229.95 34.2296 229.598 34.8565C229.247 35.4833 229.069 36.1366 229.069 36.8164C229.069 37.4908 229.241 38.1388 229.588 38.7577C229.934 39.3766 230.418 39.8606 231.037 40.2045C231.659 40.551 232.307 40.7229 232.981 40.7229C233.656 40.7229 234.304 40.551 234.925 40.2045C235.547 39.858 236.028 39.3766 236.372 38.7577C236.716 38.1388 236.888 37.4908 236.888 36.8164C236.888 36.1366 236.713 35.4833 236.364 34.8565C236.015 34.2296 235.526 33.7456 234.901 33.4097C234.277 33.0712 233.637 32.9019 232.984 32.9019ZM232.984 32.127C233.772 32.127 234.539 32.328 235.29 32.7326C236.039 33.1373 236.623 33.7139 237.041 34.4677C237.459 35.2188 237.668 36.0044 237.668 36.819C237.668 37.6257 237.462 38.4033 237.049 39.1492C236.637 39.895 236.06 40.4743 235.317 40.8869C234.574 41.2995 233.796 41.5058 232.984 41.5058C232.172 41.5058 231.394 41.2995 230.651 40.8869C229.908 40.4743 229.329 39.895 228.913 39.1492C228.498 38.4033 228.292 37.6257 228.292 36.819C228.292 36.0044 228.501 35.2188 228.921 34.4677C229.342 33.7165 229.926 33.1373 230.678 32.7326C231.429 32.328 232.196 32.127 232.984 32.127Z" fill="white"/>
</svg>
