<svg width="399" height="399" viewBox="0 0 399 399" fill="none" xmlns="http://www.w3.org/2000/svg">
<path d="M321.158 81.606C316.743 81.6266 313.143 79.6784 311.324 76.6169C307.101 69.5457 314.183 61.0519 323.251 62.5775C328.467 63.4536 332.487 67.2779 332.546 71.8134C332.594 77.1633 327.462 81.5751 321.158 81.606ZM273.486 222.527C272.565 226.557 271.009 230.422 269.036 234.144C264.645 242.421 259.98 250.564 254.919 258.553C249.177 267.624 243.016 276.489 236.473 285.148C231.353 291.92 226.173 298.661 220.873 305.32C216.531 310.773 211.961 316.102 207.499 321.483C207.367 321.648 207.2 321.803 206.984 322.05C205.453 320.256 203.946 318.535 202.51 316.772C197.725 310.917 192.916 305.073 188.227 299.156C181.994 291.291 176.012 283.282 170.258 275.149C164.708 267.304 159.372 259.347 154.551 251.152C151.369 245.75 148.247 240.328 145.268 234.845C142.923 230.515 141.272 225.969 140.315 221.248C139.299 216.28 139.191 211.291 139.801 206.281C140.435 201.065 141.859 196.014 144.084 191.128C146.715 185.335 150.352 180.047 154.958 175.264C160.76 169.245 167.674 164.4 175.725 160.782C183.047 157.473 190.834 155.411 199.053 154.587C209.09 153.587 218.923 154.422 228.494 157.184C237.214 159.699 245.014 163.596 251.869 168.873C260.614 175.594 266.93 183.707 270.818 193.231C272.912 198.375 274.108 203.684 274.455 209.126C274.742 213.641 274.491 218.104 273.486 222.527ZM397.84 102.346C398.438 100.604 398.402 100.727 399 98.9853C389.454 93.5942 379.883 88.1825 369.966 82.5853C369.571 82.3585 369.488 81.8843 369.787 81.5648C378.699 72.0608 387.013 63.2063 395.292 54.3826C394.287 53.0117 394.299 53.0426 393.294 51.6716C383.018 53.8466 372.765 56.0834 362.442 58.0729C360.755 58.4027 358.841 57.908 356.986 57.5987C356.448 57.5059 356.173 57.0009 356.436 56.5885C357.286 55.2588 358.051 53.8672 359.224 52.7849C364.918 47.4969 371.761 42.9098 376.33 37.0034C381.797 29.9424 376.976 23.9741 367.059 24.3967C362.872 24.5719 358.709 25.3244 354.068 25.9223C353.577 25.9841 353.122 25.644 353.134 25.2213C353.206 19.8096 353.912 15.0267 352.847 10.5634C352.07 7.31636 349.235 2.91485 346.16 2.02837C343.002 1.12126 337.714 3.1004 334.676 5.22384C330.692 8.01731 327.749 11.924 324.005 15.9545C323.622 16.3565 322.88 16.274 322.629 15.7998C321.529 13.6558 320.655 11.8519 319.626 10.1201C316.803 5.3063 314.363 -0.45586 306.635 0.0286154C299.098 0.502783 296.933 6.21341 295.079 11.4086C293.607 15.5215 292.686 19.7787 291.43 24.5822C291.298 25.0976 290.557 25.3038 290.102 24.9533C286.477 22.2114 283.547 19.8921 280.436 17.7584C275.567 14.4186 269.191 11.0994 264.31 15.0474C261.02 17.7171 259.956 23.9741 260.602 28.3343C261.535 34.715 264.526 40.8792 266.894 47.3526C267.074 47.8474 266.571 48.3421 265.973 48.2494C264.262 47.9608 262.719 47.5897 261.367 47.8886C257.145 48.8163 251.067 49.2493 249.488 51.6819C247.861 54.1868 249.405 59.7015 251.833 62.3713C256.451 67.4532 262.181 72.0711 268.378 75.6995C273.558 78.7301 275.352 81.9049 273.57 86.7188C269.873 96.7588 267.277 107.273 261.966 116.643C249.871 137.97 231.018 151.979 201.637 150.391C180.798 149.268 164.875 139.527 152.123 125.838C140.531 113.396 127.156 103.057 110.097 96.3671C71.2658 81.1422 25.4122 95.4806 9.72891 129.476C-3.0833 157.225 -3.4661 185.799 9.92032 213.919C10.7218 215.6 11.8344 217.177 12.8991 218.764C13.258 219.3 14.1911 219.187 14.3825 218.589C16.3563 212.064 16.6913 205.828 18.2345 199.828C19.7418 193.932 22.6488 188.304 25.0174 182.573C25.161 182.212 25.6156 182.026 26.0343 182.15L26.8956 182.408C27.2306 182.511 27.4459 182.789 27.4339 183.098C24.8141 219.97 40.6409 253.42 58.5134 264.212C59.1116 264.573 59.9131 264.109 59.7695 263.49C59.0876 260.676 58.4656 258.264 58.0469 255.832C56.1089 244.575 55.2117 233.36 61.7314 222.836C71.2538 207.456 84.9872 206.013 97.5841 219.383C102.345 224.433 106.126 230.237 109.882 235.927C113.1 240.813 115.516 246.091 118.495 251.1C132.193 274.108 152.087 290.745 182.126 296.93C183.154 297.146 184.087 297.713 185.224 298.28C185.571 298.455 185.702 298.837 185.547 299.156C180.869 308.289 180.582 317.319 188.753 324.442C194.423 329.379 195.368 334.409 195.572 340.718C195.775 347.15 192.868 348.727 186.025 348.634C166.418 348.377 146.787 348.366 127.18 348.676C112.167 348.913 113.112 350.5 107.92 336.976C105.803 331.461 102.25 329.905 95.9212 329.977C75.4887 330.224 55.0562 330.028 34.6236 330.059C32.2789 330.059 29.9222 330.369 26.3453 330.668C25.7831 330.719 25.4481 331.245 25.6993 331.678C30.4605 339.821 34.4202 347.109 38.9781 354.098C41.9927 358.705 42.1602 362.499 38.7149 367.086C34.0853 373.25 30.293 379.878 25.8309 386.887C25.5677 387.3 25.8429 387.815 26.3812 387.908C28.379 388.248 29.6949 388.557 31.0108 388.568C51.1563 388.671 71.3137 389.021 91.4591 388.66C108.064 388.361 103.948 390.619 109.391 377.559C111.593 372.271 114.392 369.766 121.57 369.797C183.681 370.065 245.804 370.023 307.915 369.859C314.351 369.838 316.708 371.487 316.301 377.105C315.834 383.63 316.157 390.196 316.181 398.298C316.181 398.834 316.863 399.174 317.389 398.906C344.198 385.537 369.081 373.126 395.411 359.983C395.949 359.715 395.949 359.045 395.411 358.777C368.531 345.439 343.732 333.131 317.354 320.03C316.815 319.762 316.145 320.102 316.145 320.638C316.121 328.936 315.894 335.399 316.241 341.841C316.504 346.645 314.614 348.583 308.86 348.573C281.345 348.511 253.831 348.727 226.316 348.645C224.426 348.634 220.909 346.903 220.933 346.026C221.089 339.398 217.799 332.41 226.244 326.812C234.63 321.246 236.975 312.969 233.937 303.918C233.398 302.331 232.992 300.713 232.393 298.61C232.298 298.249 232.537 297.888 232.944 297.775C236.58 296.785 239.894 295.847 243.244 295.002C264.203 289.735 283.463 281.694 299.146 268.356C328.3 243.586 334.556 212.868 329.328 179.377C327.893 170.213 326.122 161.091 324.388 151.34C324.292 150.804 324.914 150.381 325.488 150.587C330.501 152.381 334.09 153.947 337.906 154.834C358.171 159.524 376.342 148.33 373.603 132.012C372.454 125.229 367.167 118.9 363.387 112.53C361.891 110.005 359.702 107.788 357.704 105.479C358.518 104.057 358.661 103.82 359.487 102.397H397.84V102.346Z" fill="white"/>
<path d="M207.898 179.638C187.369 179.473 170.879 193.564 170.436 210.835C169.97 228.858 186.724 243.484 207.468 243.545C227.913 243.525 244.224 229.455 244.607 212.224C244.989 194.212 228.236 179.802 207.898 179.638Z" fill="#F15F35"/>
</svg>
