<svg width="19" height="24" viewBox="0 0 19 24" fill="none" xmlns="http://www.w3.org/2000/svg">
<path fill-rule="evenodd" clip-rule="evenodd" d="M9.47925 0C13.5125 0 16.7917 3.3085 16.7917 7.38942C16.7917 8.77175 16.1829 10.4867 15.2967 12.1973C13.3457 15.964 10.0957 19.7578 10.0957 19.7578C9.94183 19.9377 9.7165 20.0417 9.47925 20.0417C9.242 20.0417 9.01666 19.9377 8.86283 19.7578C8.86283 19.7578 5.61283 15.964 3.66175 12.1973C2.77558 10.4867 2.16675 8.77175 2.16675 7.38942C2.16675 3.3085 5.446 0 9.47925 0ZM9.47925 4.33333C11.1237 4.33333 12.4584 5.668 12.4584 7.3125C12.4584 8.957 11.1237 10.2917 9.47925 10.2917C7.83475 10.2917 6.50008 8.957 6.50008 7.3125C6.50008 5.668 7.83475 4.33333 9.47925 4.33333Z" fill="#F15F35"/>
<path fill-rule="evenodd" clip-rule="evenodd" d="M4.29642 17.4709C3.41567 17.7352 2.68984 18.0624 2.18825 18.4459C1.86325 18.6929 1.62492 18.9345 1.62492 19.2291C1.62492 19.4025 1.7235 19.5595 1.86217 19.7166C2.09184 19.9755 2.43309 20.2085 2.85559 20.4251C4.34842 21.1889 6.76209 21.6666 9.47909 21.6666C12.1961 21.6666 14.6098 21.1889 16.1026 20.4251C16.5251 20.2085 16.8663 19.9755 17.096 19.7166C17.2347 19.5595 17.3333 19.4025 17.3333 19.2291C17.3333 18.9345 17.0949 18.6929 16.7699 18.4459C16.2683 18.0624 15.5425 17.7352 14.6618 17.4709C14.2328 17.342 13.989 16.888 14.1179 16.459C14.2468 16.029 14.7008 15.7852 15.1298 15.9141C16.4709 16.3182 17.5131 16.8718 18.1393 17.4839C18.6896 18.0201 18.9583 18.6203 18.9583 19.2291C18.9583 19.9896 18.5282 20.748 17.6539 21.3806C16.1199 22.49 13.0389 23.2916 9.47909 23.2916C5.91925 23.2916 2.83825 22.49 1.30425 21.3806C0.430004 20.748 -8.01086e-05 19.9896 -8.01086e-05 19.2291C-8.01086e-05 18.6203 0.268587 18.0201 0.81892 17.4839C1.44509 16.8718 2.48725 16.3182 3.82842 15.9141C4.25742 15.7852 4.71134 16.029 4.84025 16.459C4.96917 16.888 4.72542 17.342 4.29642 17.4709Z" fill="#F15F35"/>
</svg>
