<svg width="20" height="20" viewBox="0 0 20 20" fill="none" xmlns="http://www.w3.org/2000/svg">
<path fill-rule="evenodd" clip-rule="evenodd" d="M6.26241 20H3.14793C1.40931 20 0 18.5907 0 16.8521V13.7376C0 13.0314 0.573103 12.4583 1.27931 12.4583C1.98517 12.4583 2.55828 13.0314 2.55828 13.7376V16.8521C2.55828 17.1776 2.82241 17.4417 3.14793 17.4417H6.26241C6.96862 17.4417 7.54172 18.0148 7.54172 18.7207C7.54172 19.4269 6.96862 20 6.26241 20Z" fill="#2C2C2C"/>
<path fill-rule="evenodd" clip-rule="evenodd" d="M19.9997 13.7376V16.8521C19.9997 18.5907 18.5904 20 16.8518 20H13.7373C13.0311 20 12.458 19.4269 12.458 18.7207C12.458 18.0148 13.0311 17.4417 13.7373 17.4417H16.8518C17.1773 17.4417 17.4415 17.1776 17.4415 16.8521V13.7376C17.4415 13.0314 18.0146 12.4583 18.7204 12.4583C19.4266 12.4583 19.9997 13.0314 19.9997 13.7376Z" fill="#2C2C2C"/>
<path fill-rule="evenodd" clip-rule="evenodd" d="M13.7373 2.47955e-05H16.8518C18.5904 2.47955e-05 19.9997 1.40934 19.9997 3.14796V6.26244C19.9997 6.96864 19.4266 7.54175 18.7204 7.54175C18.0146 7.54175 17.4415 6.96864 17.4415 6.26244V3.14796C17.4415 2.82244 17.1773 2.5583 16.8518 2.5583H13.7373C13.0311 2.5583 12.458 1.9852 12.458 1.27934C12.458 0.573128 13.0311 2.47955e-05 13.7373 2.47955e-05Z" fill="#2C2C2C"/>
<path fill-rule="evenodd" clip-rule="evenodd" d="M0 6.26244V3.14796C0 1.40934 1.40931 2.47955e-05 3.14793 2.47955e-05H6.26241C6.96862 2.47955e-05 7.54172 0.573128 7.54172 1.27934C7.54172 1.9852 6.96862 2.5583 6.26241 2.5583H3.14793C2.82241 2.5583 2.55828 2.82244 2.55828 3.14796V6.26244C2.55828 6.96864 1.98517 7.54175 1.27931 7.54175C0.573103 7.54175 0 6.96864 0 6.26244Z" fill="#2C2C2C"/>
<path fill-rule="evenodd" clip-rule="evenodd" d="M8.62074 11.3793H6.20695C5.44557 11.3793 4.82764 10.7613 4.82764 9.99995C4.82764 9.23857 5.44557 8.62064 6.20695 8.62064H8.62074V6.20685C8.62074 5.44547 9.23867 4.82754 10.0001 4.82754C10.7614 4.82754 11.3794 5.44547 11.3794 6.20685V8.62064H13.7932C14.5545 8.62064 15.1725 9.23857 15.1725 9.99995C15.1725 10.7613 14.5545 11.3793 13.7932 11.3793H11.3794V13.7931C11.3794 14.5544 10.7614 15.1724 10.0001 15.1724C9.23867 15.1724 8.62074 14.5544 8.62074 13.7931V11.3793Z" fill="#F15F35"/>
</svg>
